<svg width="372" height="80" viewBox="0 0 372 80" fill="none" xmlns="http://www.w3.org/2000/svg">
<path d="M60.2023 0.673706H89.7192V1.55694L65.8108 33.2384H76.4949C80.2405 33.2384 83.2125 31.9294 85.4107 29.3113C86.3544 28.1894 87.1682 26.9641 87.8365 25.6586C88.6573 23.9038 89.3482 22.0909 89.9035 20.2345H90.7901V34.1217H57.7168V33.1885L81.7348 1.49706H74.5872C70.3999 1.49706 67.2055 2.77782 65.0039 5.33935C64.176 6.25601 63.4618 7.2697 62.877 8.3583C62.1628 9.82349 61.5487 11.3356 61.0391 12.8842H60.2023V0.673706Z" fill="white"/>
<path d="M110.871 0.673706H140.388V1.55694L116.48 33.2384H127.164C130.906 33.2384 133.876 31.9294 136.075 29.3113C137.018 28.1894 137.832 26.9641 138.5 25.6586C139.321 23.9038 140.012 22.0909 140.567 20.2345H141.474V34.1217H108.386V33.1885L132.404 1.49706H125.261C121.067 1.49706 117.873 2.77283 115.678 5.32438C114.847 6.23971 114.131 7.25358 113.546 8.34333C112.834 9.80949 112.22 11.3215 111.708 12.8693H110.871V0.673706Z" fill="white"/>
<path d="M157.482 0.673706H180.639V1.55694H177.989C175.947 1.55694 174.424 2.05594 173.421 3.05393C172.419 4.05193 171.92 5.58054 171.927 7.63974V24.6057C171.876 26.3646 172.342 28.0998 173.267 29.5957C174.203 31.0232 175.542 32.1399 177.112 32.8043C179.003 33.5995 181.04 33.9838 183.089 33.932C185.012 33.9468 186.924 33.6503 188.753 33.0538C190.314 32.5862 191.746 31.763 192.937 30.6486C194.823 28.7025 195.766 25.9713 195.766 22.455V10.479C195.766 6.64673 194.65 4.04528 192.419 2.6747C191.806 2.28542 191.133 2.00204 190.426 1.83638C189.426 1.64706 188.411 1.55018 187.393 1.54696V0.673706H203.586V1.55694C202.776 1.60097 201.974 1.73826 201.195 1.96612C200.543 2.18883 199.93 2.51207 199.377 2.92419C198.452 3.63433 197.735 4.58052 197.3 5.6637C196.795 6.9482 196.552 8.32059 196.583 9.70061V23.0339C196.583 26.5834 195.618 29.298 193.689 31.1776C192.719 32.1394 191.561 32.8888 190.287 33.3781C187.362 34.3979 184.278 34.8846 181.182 34.8153C178.802 34.8396 176.428 34.5833 174.109 34.0518C172.239 33.6459 170.458 32.9073 168.849 31.8712C166.236 30.0714 164.929 27.485 164.929 24.1117V7.64473C164.929 3.59285 162.905 1.56525 158.857 1.56193H157.497L157.482 0.673706Z" fill="white"/>
<path d="M238.936 17.7447H231.435V27.1059C231.435 29.1518 231.933 30.6771 232.929 31.6818C233.925 32.6864 235.446 33.1854 237.492 33.1788H238.488V34.1119H217.404V33.1887H218.31C220.366 33.1887 221.891 32.6897 222.888 31.6917C223.884 30.6937 224.382 29.1651 224.382 27.1059V7.64494C224.382 5.5691 223.884 4.03717 222.888 3.04915C221.891 2.06114 220.361 1.56214 218.295 1.55216H217.389V0.673916H243.289C246.081 0.60333 248.871 0.859555 251.603 1.43739C253.429 1.83126 255.109 2.72821 256.454 4.02719C257.155 4.73245 257.712 5.56813 258.093 6.48726C258.488 7.36795 258.697 8.32113 258.705 9.28665C258.705 11.8116 257.399 13.8392 254.785 15.3695C253.52 16.0026 252.182 16.4769 250.801 16.7816C249.165 17.1897 247.499 17.47 245.82 17.6199C244.558 17.7131 242.639 17.7613 240.062 17.7647V17.8595C241.337 18.6928 242.493 19.3565 243.548 19.9203C244.557 20.4536 245.602 20.9138 246.677 21.2976C247.851 21.7003 249.049 22.0336 250.263 22.2956L251.05 23.4932C251.578 24.2566 251.966 24.8305 252.22 25.2147C252.474 25.5989 252.773 26.0381 253.107 26.5321C254 27.8894 254.849 29.067 255.652 30.065C256.235 30.8373 256.903 31.5404 257.645 32.1608C258.681 32.8428 260.162 33.1854 262.088 33.1887H263.009V34.1219H250.482L238.936 17.7447ZM231.435 16.8565H240.943C242.822 16.9145 244.696 16.6357 246.477 16.0331C247.8 15.5831 248.935 14.7054 249.705 13.5381C250.462 12.219 250.83 10.712 250.766 9.19184C250.766 4.11868 247.54 1.58043 241.088 1.57711H231.435V16.8565Z" fill="white"/>
<path d="M298.262 17.7447H290.756V27.1059C290.756 29.1518 291.254 30.6771 292.25 31.6817C293.247 32.6864 294.769 33.1854 296.818 33.1787H297.814V34.1119H276.725V33.1887H277.636C279.688 33.1887 281.214 32.6897 282.214 31.6917C283.213 30.6937 283.711 29.1651 283.708 27.1059V7.64494C283.708 5.5691 283.21 4.03717 282.214 3.04915C281.218 2.06113 279.688 1.56213 277.626 1.55215H276.715V0.67391H302.616C305.409 0.603345 308.2 0.859568 310.934 1.43738C312.766 1.83004 314.453 2.7269 315.805 4.02719C316.494 4.73723 317.042 5.5721 317.419 6.48726C317.81 7.36907 318.017 8.32175 318.027 9.28664C318.027 11.8116 316.72 13.8392 314.107 15.3694C312.842 16.0035 311.503 16.4778 310.122 16.7816C308.486 17.19 306.82 17.4702 305.141 17.6199C303.882 17.7131 301.962 17.7613 299.378 17.7646V17.8595C300.653 18.6928 301.809 19.3565 302.865 19.9203C303.875 20.4536 304.922 20.9139 305.998 21.2976C307.171 21.6997 308.367 22.033 309.579 22.2956L310.371 23.4932C310.894 24.2566 311.287 24.8305 311.541 25.2147L312.423 26.5321C313.316 27.8893 314.165 29.067 314.968 30.065C315.552 30.8361 316.22 31.5391 316.961 32.1608C317.997 32.8428 319.478 33.1854 321.404 33.1887H322.34V34.1219H309.828L298.262 17.7447ZM290.756 16.8565H300.27C302.148 16.9141 304.022 16.6353 305.803 16.0331C307.124 15.5818 308.257 14.7043 309.026 13.5381C309.788 12.2208 310.158 10.7128 310.092 9.19183C310.092 4.11867 306.866 1.58043 300.414 1.5771H290.756V16.8565Z" fill="white"/>
<path d="M335.074 0.673706H370.597V13.6477H369.88C369.41 11.9046 368.818 10.1971 368.107 8.53794C367.584 7.38972 366.914 6.31451 366.115 5.33935C365.24 4.23983 364.119 3.36273 362.842 2.77948C360.55 1.90322 358.107 1.48781 355.655 1.55694H349.105V17.465H350.873C353.503 17.465 355.59 16.9311 357.134 14.6657C357.976 13.3913 358.576 11.9719 358.902 10.479C359.16 9.68393 359.337 8.86473 359.43 8.03395H360.262V27.5897H359.43C359.252 26.6634 359.024 25.7473 358.748 24.8452C358.543 23.9663 358.246 23.1115 357.861 22.2954C357.511 21.6003 357.09 20.9431 356.606 20.3343C355.172 18.5579 353.119 18.2684 350.489 18.2684H349.105V33.2384H354.584C356.054 33.2494 357.522 33.1325 358.972 32.8891C360.177 32.6853 361.349 32.3229 362.459 31.8113C363.512 31.3118 364.492 30.6705 365.373 29.9051C366.964 28.5639 368.218 26.8665 369.033 24.95C369.657 23.4548 370.179 21.9195 370.597 20.3543H371.484V34.1217H335.123L335.074 33.2384H335.98C340.028 33.2384 342.052 31.1942 342.052 27.1057V7.64473C342.052 5.56889 341.554 4.03696 340.558 3.04894C339.561 2.06093 338.031 1.56193 335.965 1.55195H335.059L335.074 0.673706Z" fill="white"/>
<path d="M42.6186 33.1885V34.1216H23.2379V33.1885H25.7682C26.7153 33.2589 27.6648 33.0872 28.5276 32.6895C28.811 32.5315 29.0438 32.2961 29.199 32.0108C29.3542 31.7255 29.4254 31.4019 29.4042 31.0777C29.3808 30.5163 29.2629 29.963 29.0556 29.441C28.8265 28.8023 28.3284 27.6379 27.5613 25.948C27.5613 25.9081 26.1467 22.8442 24.4731 19.1716C24.3038 18.8073 24.1394 18.438 23.975 18.0688C22.3562 14.5109 20.583 10.6337 19.5968 8.47301C19.3566 7.93889 19.2324 7.35974 19.2324 6.77392C19.2324 6.1881 19.3566 5.60895 19.5968 5.07483L21.8034 0H22.685L31.0878 18.2983L31.2522 18.6726L36.1136 29.2563C36.4848 30.0747 36.9731 30.8345 37.563 31.5118C38.0572 32.0718 38.6744 32.5091 39.3661 32.7893C40.1235 33.067 40.9256 33.2024 41.732 33.1885H42.6186Z" fill="white"/>
<path d="M31.2569 18.6726C29.164 18.2871 27.0084 18.4242 24.981 19.0718L24.448 19.2065L24.2039 19.2814C21.0611 20.2883 18.3214 22.2743 16.3839 24.95L12.5336 30.7584L10.3669 34.1216H0.514648V33.1236H1.51083C3.53309 33.1236 5.08714 32.7693 6.17796 32.0458C6.95309 31.3922 7.65308 30.6541 8.26497 29.8452C8.70993 29.2963 9.16984 28.6925 9.64469 28.0338C9.64469 27.9989 9.68952 27.964 9.71442 27.929C9.88875 27.6696 10.0581 27.43 10.2125 27.1756C10.2301 27.1596 10.2452 27.1411 10.2573 27.1207C12.8873 23.453 15.9555 20.6886 19.8058 19.1816C21.1323 18.663 22.5148 18.3013 23.925 18.1037C26.3018 17.7992 28.7115 17.8665 31.0677 18.3033L31.2569 18.6726Z" fill="white"/>
<path d="M117.008 74.8497V79.8497H115.503V74.8497L109.726 65.3837H111.354L116.305 73.5024L121.261 65.3837H122.786L117.008 74.8497Z" fill="white"/>
<path d="M147.81 75.9826H139.766L138.032 79.8399H136.443L143.048 65.3689H144.542L151.142 79.8399H149.543L147.81 75.9826ZM147.257 74.7451L143.77 66.9707L140.284 74.7451H147.257Z" fill="white"/>
<path d="M170.184 79.0213C169.06 78.4079 168.126 77.4964 167.484 76.3865C166.841 75.2337 166.503 73.9349 166.503 72.6141C166.503 71.2933 166.841 69.9945 167.484 68.8417C168.126 67.7285 169.064 66.8163 170.194 66.2069C171.386 65.5661 172.721 65.2398 174.074 65.2588C175.095 65.2478 176.109 65.429 177.063 65.7928C177.941 66.1334 178.73 66.6711 179.369 67.3646L178.387 68.3626C177.831 67.7976 177.165 67.3535 176.429 67.0582C175.694 66.7628 174.906 66.6225 174.114 66.6461C173.026 66.6345 171.954 66.9043 171.001 67.4295C170.087 67.9325 169.327 68.6762 168.804 69.5802C168.282 70.5146 168.007 71.5679 168.007 72.6391C168.007 73.7102 168.282 74.7635 168.804 75.6979C169.327 76.6019 170.087 77.3456 171.001 77.8486C171.953 78.3759 173.026 78.6459 174.114 78.632C174.907 78.6576 175.697 78.5167 176.433 78.2186C177.169 77.9204 177.835 77.4714 178.387 76.9005L179.354 77.8686C178.71 78.566 177.917 79.107 177.033 79.4504C176.081 79.8237 175.066 80.01 174.044 79.9993C172.694 80.0182 171.361 79.69 170.174 79.0462" fill="white"/>
<path d="M209.125 65.3837V79.8497H207.621V73.1731H198.586V79.8497H197.057V65.3837H198.586V71.8307H207.621V65.3837H209.125Z" fill="white"/>
<path d="M231.078 66.706H226.002V65.3837H237.682V66.706H232.607V79.8497H231.078V66.706Z" fill="white"/>
<path d="M255.229 79.4556C254.371 79.1887 253.589 78.7219 252.947 78.0933L253.545 76.9157C254.14 77.4847 254.85 77.9186 255.627 78.1881C256.485 78.5128 257.394 78.6817 258.312 78.6871C259.332 78.7578 260.349 78.5084 261.221 77.9736C261.523 77.77 261.769 77.4941 261.938 77.1708C262.107 76.8475 262.192 76.4871 262.187 76.1223C262.199 75.8683 262.159 75.6144 262.069 75.3766C261.979 75.1388 261.841 74.9221 261.664 74.7401C261.294 74.3863 260.855 74.1143 260.374 73.9417C259.676 73.7009 258.966 73.4977 258.247 73.3329C257.365 73.1215 256.497 72.8565 255.647 72.5395C255.009 72.2883 254.44 71.8879 253.988 71.3718C253.5 70.7732 253.253 70.013 253.296 69.2411C253.29 68.5335 253.491 67.8397 253.874 67.2451C254.312 66.6032 254.929 66.1037 255.647 65.808C256.595 65.4236 257.613 65.2418 258.635 65.274C259.456 65.2741 260.272 65.3883 261.061 65.6134C261.792 65.814 262.485 66.1325 263.113 66.5565L262.615 67.774C262.019 67.378 261.365 67.0751 260.678 66.8758C260.021 66.681 259.34 66.5802 258.655 66.5764C257.648 66.5058 256.646 66.7631 255.796 67.31C255.496 67.5238 255.252 67.8077 255.085 68.1372C254.918 68.4667 254.834 68.8318 254.84 69.2012C254.828 69.4566 254.868 69.7119 254.958 69.9513C255.048 70.1906 255.186 70.4091 255.363 70.5934C255.736 70.96 256.187 71.2364 256.683 71.4017C257.216 71.5864 257.928 71.791 258.82 72.0105C259.691 72.2157 260.55 72.474 261.39 72.784C262.028 73.03 262.597 73.4273 263.049 73.9417C263.528 74.533 263.771 75.2817 263.731 76.0424C263.737 76.7514 263.532 77.446 263.143 78.0384C262.696 78.6845 262.067 79.1816 261.335 79.4656C260.386 79.8449 259.368 80.0249 258.347 79.9945C257.298 80.0044 256.256 79.8356 255.263 79.4955" fill="white"/>
</svg>
