<svg width="17" height="19" viewBox="0 0 17 19" fill="none" xmlns="http://www.w3.org/2000/svg">
<path d="M16.633 16.8478L10.7643 7.62469L16.5552 1.25438C16.6862 1.10674 16.7537 0.913434 16.7431 0.716365C16.7325 0.519295 16.6446 0.334346 16.4986 0.201615C16.3525 0.0688843 16.16 -0.00092985 15.9628 0.00730857C15.7657 0.015547 15.5797 0.101174 15.4452 0.245625L9.92894 6.31312L6.133 0.347813C6.06531 0.24127 5.97183 0.153535 5.86121 0.0927355C5.75059 0.0319361 5.62642 3.91221e-05 5.50019 8.87202e-08H1.00019C0.865715 -6.53095e-05 0.733696 0.0360256 0.617958 0.104494C0.50222 0.172962 0.407019 0.271288 0.342323 0.389177C0.277628 0.507066 0.245819 0.64018 0.250227 0.774582C0.254634 0.908984 0.295096 1.03973 0.367376 1.15313L6.23613 10.3753L0.445189 16.7503C0.377564 16.823 0.325029 16.9083 0.29063 17.0014C0.256231 17.0945 0.240651 17.1935 0.244794 17.2927C0.248937 17.3918 0.272721 17.4892 0.314766 17.5791C0.356811 17.669 0.416281 17.7496 0.489729 17.8164C0.563178 17.8831 0.649145 17.9346 0.742647 17.9679C0.836149 18.0012 0.935326 18.0156 1.03443 18.0103C1.13354 18.0049 1.2306 17.98 1.31999 17.9369C1.40938 17.8937 1.48932 17.8333 1.55519 17.7591L7.07144 11.6916L10.8674 17.6569C10.9356 17.7625 11.0293 17.8494 11.1399 17.9093C11.2505 17.9693 11.3744 18.0005 11.5002 18H16.0002C16.1345 18 16.2664 17.9638 16.382 17.8954C16.4976 17.827 16.5927 17.7288 16.6573 17.611C16.722 17.4933 16.7539 17.3604 16.7496 17.2261C16.7453 17.0918 16.705 16.9612 16.633 16.8478ZM11.9118 16.5L2.36613 1.5H5.08488L14.6343 16.5H11.9118Z" fill="#A88873"/>
</svg>
