<svg width="21" height="18" viewBox="0 0 21 18" fill="none" xmlns="http://www.w3.org/2000/svg">
<path d="M13.9163 8.37563L9.41625 5.37563C9.30327 5.30025 9.17195 5.25697 9.03629 5.2504C8.90064 5.24382 8.76575 5.27421 8.64601 5.33831C8.52628 5.40241 8.4262 5.49783 8.35645 5.61436C8.2867 5.7309 8.24991 5.86419 8.25 6V12C8.24991 12.1358 8.2867 12.2691 8.35645 12.3856C8.4262 12.5022 8.52628 12.5976 8.64601 12.6617C8.76575 12.7258 8.90064 12.7562 9.03629 12.7496C9.17195 12.743 9.30327 12.6998 9.41625 12.6244L13.9163 9.62438C14.0191 9.55592 14.1035 9.46309 14.1618 9.35417C14.2202 9.24524 14.2507 9.12358 14.2507 9C14.2507 8.87643 14.2202 8.75477 14.1618 8.64584C14.1035 8.53691 14.0191 8.44409 13.9163 8.37563ZM9.75 10.5984V7.40625L12.1481 9L9.75 10.5984ZM20.4684 3.5175C20.3801 3.17189 20.2109 2.85224 19.9747 2.58491C19.7385 2.31758 19.4421 2.11024 19.11 1.98C15.8962 0.738753 10.7812 0.750004 10.5 0.750004C10.2188 0.750004 5.10375 0.738753 1.89 1.98C1.5579 2.11024 1.26153 2.31758 1.02534 2.58491C0.789145 2.85224 0.619899 3.17189 0.531563 3.5175C0.28875 4.45313 0 6.16313 0 9C0 11.8369 0.28875 13.5469 0.531563 14.4825C0.619767 14.8283 0.788954 15.1481 1.02515 15.4156C1.26136 15.6831 1.5578 15.8906 1.89 16.0209C4.96875 17.2088 9.7875 17.25 10.4381 17.25H10.5619C11.2125 17.25 16.0341 17.2088 19.11 16.0209C19.4422 15.8906 19.7386 15.6831 19.9748 15.4156C20.211 15.1481 20.3802 14.8283 20.4684 14.4825C20.7113 13.545 21 11.8369 21 9C21 6.16313 20.7113 4.45313 20.4684 3.5175ZM19.0163 14.1113C18.9877 14.2263 18.9323 14.3329 18.8545 14.4224C18.7768 14.5118 18.679 14.5816 18.5691 14.6259C15.6019 15.7716 10.5553 15.7509 10.5066 15.7509H10.5C10.4494 15.7509 5.40656 15.7697 2.4375 14.6259C2.3276 14.5816 2.22977 14.5118 2.15204 14.4224C2.07431 14.3329 2.01888 14.2263 1.99031 14.1113C1.7625 13.2553 1.5 11.6784 1.5 9C1.5 6.32157 1.7625 4.74469 1.98375 3.89344C2.01179 3.77774 2.06697 3.67037 2.14473 3.58022C2.2225 3.49007 2.3206 3.41972 2.43094 3.375C5.29219 2.26969 10.0866 2.25 10.4794 2.25H10.5047C10.5553 2.25 15.6028 2.23313 18.5672 3.375C18.6771 3.41936 18.7749 3.48913 18.8526 3.57859C18.9304 3.66806 18.9858 3.77467 19.0144 3.88969C19.2375 4.74469 19.5 6.32157 19.5 9C19.5 11.6784 19.2375 13.2553 19.0163 14.1066V14.1113Z" fill="#A88873"/>
</svg>
